HIERARCHY
ROOT ui
{
	 OFFSET 0 0 0
	 CHANNELS 3 XPosition YPosition Z Position
	 EndSite
	 {
	 OFFSET 0 -1 0
	 }
}
ROOT li
{
	 OFFSET 0 0 0
	 CHANNELS 3 XPosition YPosition Z Position
	 EndSite
	 {
	 OFFSET 0 -1 0
	 }
}
ROOT ul
{
	 OFFSET 0 0 0
	 CHANNELS 3 XPosition YPosition Z Position
	 EndSite
	 {
	 OFFSET 0 -1 0
	 }
}
ROOT ll
{
	 OFFSET 0 0 0
	 CHANNELS 3 XPosition YPosition Z Position
	 EndSite
	 {
	 OFFSET 0 -1 0
	 }
}
ROOT tt
{
	 OFFSET 0 0 0
	 CHANNELS 3 XPosition YPosition Z Position
	 EndSite
	 {
	 OFFSET 0 -1 0
	 }
}
ROOT tb
{
	 OFFSET 0 0 0
	 CHANNELS 3 XPosition YPosition Z Position
	 EndSite
	 {
	 OFFSET 0 -1 0
	 }
}
ROOT td
{
	 OFFSET 0 0 0
	 CHANNELS 3 XPosition YPosition Z Position
	 EndSite
	 {
	 OFFSET 0 -1 0
	 }
}
ROOT v
{
	 OFFSET 0 0 0
	 CHANNELS 3 XPosition YPosition Z Position
	 EndSite
	 {
	 OFFSET 0 -1 0
	 }
}
ROOT bn
{
	 OFFSET 0 0 0
	 CHANNELS 3 XPosition YPosition Z Position
	 EndSite
	 {
	 OFFSET 0 -1 0
	 }
}
MOTION
Frames: 13
Frame Time: 0.002
1.534930020570755E-4	-3.954999893903732E-5	0		0.4453874206542969	-2.349105712890625	0		-1.0556978759765625	0.03480202865600586	0		-0.7188067016601563	-2.38876806640625	0		1.51687744140625	-0.71800146484375	0		3.25336767578125	-0.3969601135253906	0		4.6700927734375	-0.1735350341796875	0		5.573837890625	0.13640583801269532	0		-0.40612442016601563	5.828884765625	0		
-0.07824409484863282	-0.0023838019371032713	0		0.45915875244140625	-2.334850830078125	0		-0.9770847778320313	0.034702442169189454	0		-0.6510843505859375	-2.385804443359375	0		1.51253466796875	-0.7146223754882812	0		3.256916748046875	-0.4145487060546875	0		4.6906494140625	-0.18615298461914062	0		5.5744111328125	0.12892227172851561	0		-0.4017390441894531	5.82914697265625	0		
0.0062804617881774905	-0.003469135046005249	0		0.46872491455078125	-2.347576171875	0		-1.0175875244140624	0.02814373016357422	0		-0.7194342041015624	-2.380223876953125	0		1.5140755615234376	-0.71826904296875	0		3.26548583984375	-0.40915603637695314	0		4.68814501953125	-0.19366043090820312	0		5.578935546875	0.12942730712890624	0		-0.39844189453125	5.83041357421875	0		
-0.06932255554199218	-0.0018370879888534547	0		0.4642535705566406	-2.3382421875	0		-0.976201904296875	0.027211311340332032	0		-0.641967529296875	-2.3853046875	0		1.5154833984375	-0.72091845703125	0		3.2658720703125	-0.413728759765625	0		4.67557421875	-0.18512484741210938	0		5.58332177734375	0.12993206787109374	0		-0.4283216552734375	5.8238232421875	0		
0.01086816692352295	-0.00590756893157959	0		0.45053250122070315	-2.343875	0		-1.04598876953125	0.02876685905456543	0		-0.6856863403320312	-2.390850341796875	0		1.5227353515625	-0.7176009521484376	0		3.265213134765625	-0.3873040771484375	0		4.6838154296875	-0.1776899871826172	0		5.59156103515625	0.13841249084472657	0		-0.4243522338867188	5.82407421875	0		
-0.03412412643432617	-0.001432121992111206	0		0.4566258239746094	-2.34160498046875	0		-1.0050008544921876	0.02882259750366211	0		-0.6775823974609375	-2.38663525390625	0		1.529771484375	-0.7132920532226562	0		3.288113037109375	-0.4109942626953125	0		4.68780615234375	-0.17724769592285156	0		5.595544921875	0.13889973449707033	0		-0.3855731506347656	5.8301640625	0		
-0.03038547134399414	-0.0011823350191116334	0		0.4514922180175781	-2.333296875	0		-1.0382630615234374	0.02919451141357422	0		-0.6906620483398438	-2.36633740234375	0		1.5365513916015625	-0.7099932250976563	0		3.2789375	-0.3945563049316406	0		4.687515625	-0.18380096435546875	0		5.5952431640625	0.13139044189453125	0		-0.3820660095214844	5.83039990234375	0		
-0.02692302703857422	-9.419829845428467E-4	0		0.4800270080566406	-2.3371455078125	0		-0.9978021240234375	0.029236806869506835	0		-0.6871085205078125	-2.36612255859375	0		1.5340111083984376	-0.7166666259765625	0		3.2793935546875	-0.399175537109375	0		4.68601806640625	-0.17436518859863281	0		5.59777392578125	0.14885159301757814	0		-0.37982382202148435	5.831630859375	0		
-0.053767288208007816	-0.0035830729007720946	0		0.45629043579101564	-2.33478076171875	0		-1.0356474609375	0.026606754302978517	0		-0.6728870239257813	-2.373962890625	0		1.5341929931640625	-0.719365234375	0		3.285597900390625	-0.39383526611328123	0		4.6991142578125	-0.19100994873046875	0		5.60186376953125	0.1322863311767578	0		-0.41090078735351565	5.82499365234375	0		
-0.04788931274414063	-3.7507501244544983E-4	0		0.495190673828125	-2.3456943359375	0		-0.979813232421875	0.019568798065185546	0		-0.6679258422851563	-2.3707724609375	0		1.5490833740234375	-0.7191395263671875	0		3.310396240234375	-0.41259027099609374	0		4.6980361328125	-0.1776126708984375	0		5.6127880859375	0.14767152404785155	0		-0.40624847412109377	5.823193359375	0		
-0.041308418273925784	0.0038206179141998292	0		0.4568409729003906	-2.343291748046875	0		-1.0142494506835937	0.019905927658081055	0		-0.64628369140625	-2.37066015625	0		1.55468798828125	-0.714886962890625	0		3.2950791015625	-0.38719158935546877	0		4.71560546875	-0.17631314086914063	0		5.62131787109375	0.1410457000732422	0		-0.40487228393554686	5.8243984375	0		
0.03996191024780273	0.0026964468955993654	0		0.5021924133300781	-2.34225048828125	0		-0.9499378051757813	0.028822477340698243	0		-0.6528892211914062	-2.359436279296875	0		1.5510103759765625	-0.7086076049804687	0		3.266316650390625	-0.39875418090820314	0		4.7018564453125	-0.18190058898925782	0		5.6135888671875	0.14146733093261718	0		-0.36874798583984375	5.83145068359375	0		
-0.0410452880859375	2.4009199440479278E-4	0		0.466298095703125	-2.3338798828125	0		-0.9889461059570313	0.026163692474365233	0		-0.6627957153320313	-2.35420654296875	0		1.5470064697265624	-0.7153389892578125	0		3.30232421875	-0.40060162353515627	0		4.6988994140625	-0.172551025390625	0		5.61752685546875	0.1268202438354492	0		-0.40193634033203124	5.82578369140625	0		
